<?xml version="1.0" standalone="no"?>
<!DOCTYPE svg PUBLIC "-//W3C//DTD SVG 20010904//EN"
 "http://www.w3.org/TR/2001/REC-SVG-20010904/DTD/svg10.dtd">
<svg version="1.0" xmlns="http://www.w3.org/2000/svg"
 width="81.000000pt" height="94.000000pt" viewBox="0 0 81.000000 94.000000"
 preserveAspectRatio="xMidYMid meet">

<g transform="translate(0.000000,94.000000) scale(0.100000,-0.100000)"
fill="#218965" stroke="none">
<path d="M492 873 c-7 -12 -4 -21 11 -33 21 -17 21 -17 -33 -108 -56 -94 -82
-115 -101 -80 -9 17 -17 19 -51 14 -22 -4 -55 -13 -73 -20 -27 -12 -32 -19
-28 -36 7 -28 -24 -52 -50 -38 -24 13 -49 -10 -78 -70 l-22 -45 21 -16 c26
-19 20 -56 -9 -64 -23 -6 -24 -29 -2 -96 14 -45 19 -51 43 -51 35 0 53 -21 45
-53 -5 -20 -1 -29 24 -46 16 -12 46 -28 65 -36 32 -14 36 -13 48 4 18 26 68
17 68 -12 0 -18 5 -19 49 -14 70 8 111 31 104 57 -7 28 24 52 50 38 24 -13 49
10 78 70 l22 45 -21 16 c-27 20 -20 61 11 61 18 0 19 4 14 45 -9 61 -32 103
-59 107 -13 2 -24 10 -26 19 -4 24 103 195 119 190 31 -8 43 -5 47 11 2 11
-10 24 -37 37 l-39 21 -76 -129 c-74 -125 -85 -151 -68 -151 5 0 14 -11 20
-25 8 -17 20 -25 37 -25 18 0 26 -7 31 -24 7 -28 -1 -46 -21 -46 -21 0 -25
-100 -3 -113 16 -10 16 -13 1 -38 -13 -22 -20 -26 -34 -18 -25 13 -96 -37
-101 -71 -4 -33 -45 -40 -67 -12 -20 25 -110 37 -118 16 -7 -18 -23 -18 -51 2
-18 12 -20 19 -12 29 16 20 -44 95 -76 95 -35 0 -48 54 -15 65 28 9 35 94 9
115 -17 14 -17 17 -2 38 11 16 23 22 36 19 29 -8 98 41 98 70 0 16 7 24 24 29
28 7 46 -1 46 -20 0 -10 14 -13 48 -13 l47 1 77 130 77 130 -41 23 c-48 27
-45 27 -56 6z"/>
<path d="M284 502 c-5 -4 -27 -35 -48 -70 l-38 -63 33 -52 c56 -89 52 -87 145
-87 l83 0 35 59 c20 32 36 67 36 76 0 10 -17 47 -37 82 l-37 63 -81 0 c-44 0
-85 -4 -91 -8z m165 -68 c12 -19 21 -37 21 -40 0 -2 -20 -4 -44 -4 -40 0 -46
3 -65 36 -12 19 -21 37 -21 40 0 2 20 4 44 4 40 0 46 -3 65 -36z m-129 -30
c22 -35 22 -36 4 -70 -10 -19 -21 -34 -24 -34 -3 0 -15 16 -27 35 l-23 34 21
36 c12 19 22 35 24 35 2 0 13 -16 25 -36z m150 -61 c0 -5 -9 -23 -20 -40 -18
-30 -25 -33 -65 -33 -44 0 -45 1 -34 23 23 44 41 57 81 57 21 0 38 -3 38 -7z"/>
</g>
</svg>
